<svg width="19" height="18" viewBox="0 0 19 18" fill="none" xmlns="http://www.w3.org/2000/svg">
<path fill-rule="evenodd" clip-rule="evenodd" d="M7.74982 1.85419C7.74982 0.887689 8.53332 0.104187 9.49982 0.104187C10.4663 0.104187 11.2498 0.887689 11.2498 1.85419L11.2498 11.9208L15.4084 7.76226C16.0918 7.07884 17.1998 7.07884 17.8832 7.76226C18.5667 8.44568 18.5667 9.55371 17.8832 10.2371L10.7515 17.3689C10.4337 17.694 9.99033 17.8959 9.49982 17.8959C9.00401 17.8959 8.55637 17.6897 8.23795 17.3584L1.11671 10.2371C0.43329 9.55371 0.43329 8.44568 1.11671 7.76226C1.80013 7.07884 2.90816 7.07884 3.59158 7.76226L7.74982 11.9205L7.74982 1.85419Z" fill="url(#paint0_linear_4_99)"/>
<defs>
<linearGradient id="paint0_linear_4_99" x1="6.00006" y1="18.0002" x2="14.5001" y2="-2.49982" gradientUnits="userSpaceOnUse">
<stop stop-color="#548EFF"/>
<stop offset="1" stop-color="#8A74FD"/>
</linearGradient>
</defs>
</svg>
