<svg width="19" height="18" viewBox="0 0 19 18" fill="none" xmlns="http://www.w3.org/2000/svg">
<path fill-rule="evenodd" clip-rule="evenodd" d="M7.99988 16.1458C7.99988 17.1123 8.78338 17.8958 9.74988 17.8958C10.7164 17.8958 11.4999 17.1123 11.4999 16.1458L11.4999 6.07921L15.6584 10.2378C16.3419 10.9212 17.4499 10.9212 18.1333 10.2378C18.8167 9.55435 18.8167 8.44632 18.1333 7.7629L11.0015 0.631107C10.6838 0.305986 10.2404 0.104176 9.74988 0.104176C9.25408 0.104176 8.80643 0.31036 8.48801 0.641661L1.36677 7.7629C0.683352 8.44632 0.683352 9.55435 1.36677 10.2378C2.05019 10.9212 3.15823 10.9212 3.84164 10.2378L7.99988 6.07954L7.99988 16.1458Z" fill="url(#paint0_linear_4_91)"/>
<defs>
<linearGradient id="paint0_linear_4_91" x1="7.50012" y1="6.49985" x2="21.0001" y2="38.4998" gradientUnits="userSpaceOnUse">
<stop stop-color="#3AFFE7"/>
<stop offset="1" stop-color="#FF3AF7"/>
</linearGradient>
</defs>
</svg>
