<svg width="24" height="6" viewBox="0 0 24 6" fill="none" xmlns="http://www.w3.org/2000/svg">
<path d="M21 6C19.3431 6 18 4.65685 18 3C18 1.34315 19.3431 0 21 0C22.6569 0 24 1.34315 24 3C24 3.79565 23.6839 4.55871 23.1213 5.12132C22.5587 5.68393 21.7956 6 21 6ZM12 6C10.3431 6 9 4.65685 9 3C9 1.34315 10.3431 0 12 0C13.6569 0 15 1.34315 15 3C15 3.79565 14.6839 4.55871 14.1213 5.12132C13.5587 5.68393 12.7956 6 12 6ZM3 6C1.34315 6 0 4.65685 0 3C0 1.34315 1.34315 0 3 0C4.65685 0 6 1.34315 6 3C6 3.79565 5.68393 4.55871 5.12132 5.12132C4.55871 5.68393 3.79565 6 3 6Z" fill="white"/>
</svg>
